#N canvas 1020 420 450 300 10;
#X obj -327 108 delay 10;
#X msg -327 44 set 1;
#X msg -326 129 set 0;
#X msg -327 87 1000;
#X obj -327 67 bang;
#X obj -326 163 outlet;
#X obj -328 -2 inlet;
#X connect 0 0 2 0;
#X connect 1 0 4 0;
#X connect 1 0 5 0;
#X connect 2 0 5 0;
#X connect 3 0 0 0;
#X connect 4 0 3 0;
#X connect 6 0 1 0;
