#N canvas 317 60 897 621 10;
#X obj 362 564 outlet;
#X obj 410 563 outlet;
#X obj 20 20 inlet;
#X floatatom 76 25 5 0 0 0 - - -;
#X obj 242 132 vsl 15 128 0 127 0 0 empty empty empty 0 -9 0 10 -262144
-1 -1 6200 1;
#X obj 259 132 vsl 15 128 0 127 0 0 empty empty empty 0 -9 0 10 -262144
-1 -1 0 1;
#X obj 276 132 vsl 15 128 0 127 0 0 empty empty empty 0 -9 0 10 -262144
-1 -1 0 1;
#X obj 293 132 vsl 15 128 0 127 0 0 empty empty empty 0 -9 0 10 -262144
-1 -1 4300 1;
#X obj 310 132 vsl 15 128 0 127 0 0 empty empty empty 0 -9 0 10 -262144
-1 -1 0 1;
#X obj 327 132 vsl 15 128 0 127 0 0 empty empty empty 0 -9 0 10 -262144
-1 -1 0 1;
#X obj 344 132 vsl 15 128 0 127 0 0 empty empty empty 0 -9 0 10 -262144
-1 -1 0 1;
#X obj 361 132 vsl 15 128 0 127 0 0 empty empty empty 0 -9 0 10 -262144
-1 -1 0 1;
#X obj 378 132 vsl 15 128 0 127 0 0 empty empty empty 0 -9 0 10 -262144
-1 -1 0 1;
#X obj 395 132 vsl 15 128 0 127 0 0 empty empty empty 0 -9 0 10 -262144
-1 -1 0 1;
#X obj 412 132 vsl 15 128 0 127 0 0 empty empty empty 0 -9 0 10 -262144
-1 -1 0 1;
#X obj 429 132 vsl 15 128 0 127 0 0 empty empty empty 0 -9 0 10 -262144
-1 -1 0 1;
#X obj 446 132 vsl 15 128 0 127 0 0 empty empty empty 0 -9 0 10 -262144
-1 -1 0 1;
#X obj 463 132 vsl 15 128 0 127 0 0 empty empty empty 0 -9 0 10 -262144
-1 -1 0 1;
#X obj 480 132 vsl 15 128 0 127 0 0 empty empty empty 0 -9 0 10 -262144
-1 -1 0 1;
#X obj 497 132 vsl 15 128 0 127 0 0 empty empty empty 0 -9 0 10 -262144
-1 -1 0 1;
#X obj 242 267 tgl 15 0 empty empty empty 17 7 0 10 -262144 -1 -1 1
1;
#X obj 259 267 tgl 15 0 empty empty empty 17 7 0 10 -262144 -1 -1 0
1;
#X obj 276 267 tgl 15 0 empty empty empty 17 7 0 10 -262144 -1 -1 0
1;
#X obj 293 267 tgl 15 0 empty empty empty 17 7 0 10 -262144 -1 -1 1
1;
#X obj 310 267 tgl 15 0 empty empty empty 17 7 0 10 -262144 -1 -1 0
1;
#X obj 327 267 tgl 15 0 empty empty empty 17 7 0 10 -262144 -1 -1 0
1;
#X obj 344 267 tgl 15 0 empty empty empty 17 7 0 10 -262144 -1 -1 0
1;
#X obj 361 267 tgl 15 0 empty empty empty 17 7 0 10 -262144 -1 -1 0
1;
#X obj 378 267 tgl 15 0 empty empty empty 17 7 0 10 -262144 -1 -1 0
1;
#X obj 395 267 tgl 15 0 empty empty empty 17 7 0 10 -262144 -1 -1 0
1;
#X obj 412 267 tgl 15 0 empty empty empty 17 7 0 10 -262144 -1 -1 0
1;
#X obj 429 267 tgl 15 0 empty empty empty 17 7 0 10 -262144 -1 -1 0
1;
#X obj 446 267 tgl 15 0 empty empty empty 17 7 0 10 -262144 -1 -1 0
1;
#X obj 463 267 tgl 15 0 empty empty empty 17 7 0 10 -262144 -1 -1 0
1;
#X obj 480 267 tgl 15 0 empty empty empty 17 7 0 10 -262144 -1 -1 0
1;
#X obj 497 267 tgl 15 0 empty empty empty 17 7 0 10 -262144 -1 -1 0
1;
#X obj 143 23 select 0 1 2 3 4 5 6 7 8 9 10 11 12 13 14 15;
#X obj 258 92 bng 15 250 50 0 empty empty empty 17 7 0 10 -262144 -1
-1;
#X obj 275 92 bng 15 250 50 0 empty empty empty 17 7 0 10 -262144 -1
-1;
#X obj 292 92 bng 15 250 50 0 empty empty empty 17 7 0 10 -262144 -1
-1;
#X obj 309 92 bng 15 250 50 0 empty empty empty 17 7 0 10 -262144 -1
-1;
#X obj 326 92 bng 15 250 50 0 empty empty empty 17 7 0 10 -262144 -1
-1;
#X obj 343 92 bng 15 250 50 0 empty empty empty 17 7 0 10 -262144 -1
-1;
#X obj 360 92 bng 15 250 50 0 empty empty empty 17 7 0 10 -262144 -1
-1;
#X obj 377 92 bng 15 250 50 0 empty empty empty 17 7 0 10 -262144 -1
-1;
#X obj 394 92 bng 15 250 50 0 empty empty empty 17 7 0 10 -262144 -1
-1;
#X obj 411 92 bng 15 250 50 0 empty empty empty 17 7 0 10 -262144 -1
-1;
#X obj 428 92 bng 15 250 50 0 empty empty empty 17 7 0 10 -262144 -1
-1;
#X obj 445 92 bng 15 250 50 0 empty empty empty 17 7 0 10 -262144 -1
-1;
#X obj 462 92 bng 15 250 50 0 empty empty empty 17 7 0 10 -262144 -1
-1;
#X obj 479 92 bng 15 250 50 0 empty empty empty 17 7 0 10 -262144 -1
-1;
#X obj 496 92 bng 15 250 50 0 empty empty empty 17 7 0 10 -262144 -1
-1;
#X floatatom 369 516 5 0 0 0 - - -;
#X obj 180 455 int;
#X obj 185 371 int;
#X obj 210 371 int;
#X obj 235 371 int;
#X obj 259 371 int;
#X obj 283 371 int;
#X obj 307 371 int;
#X obj 331 371 int;
#X obj 355 371 int;
#X obj 379 371 int;
#X obj 403 371 int;
#X obj 428 371 int;
#X obj 452 371 int;
#X obj 476 371 int;
#X obj 500 371 int;
#X obj 524 371 int;
#X obj 548 371 int;
#X obj 91 413 sel 1;
#X obj 127 413 sel 1;
#X obj 163 413 sel 1;
#X obj 199 413 sel 1;
#X obj 235 413 sel 1;
#X obj 271 413 sel 1;
#X obj 307 413 sel 1;
#X obj 343 413 sel 1;
#X obj 379 413 sel 1;
#X obj 415 413 sel 1;
#X obj 451 413 sel 1;
#X obj 487 413 sel 1;
#X obj 523 413 sel 1;
#X obj 559 413 sel 1;
#X obj 595 413 sel 1;
#X obj 631 413 sel 1;
#X obj 204 455 int;
#X obj 228 455 int;
#X obj 252 455 int;
#X obj 276 455 int;
#X obj 300 455 int;
#X obj 324 455 int;
#X obj 348 455 int;
#X obj 372 455 int;
#X obj 396 455 int;
#X obj 420 455 int;
#X obj 444 455 int;
#X obj 468 455 int;
#X obj 492 455 int;
#X obj 516 455 int;
#X obj 540 455 int;
#X msg 442 529 bang;
#X obj 621 64 cnv 15 100 60 empty empty empty 20 12 0 14 -233017 -66577
0;
#X obj 241 92 bng 15 250 50 0 empty empty empty 17 7 0 10 -262144 -1
-1;
#X obj 491 529 128;
#X connect 2 0 3 0;
#X connect 2 0 36 0;
#X connect 4 0 53 1;
#X connect 5 0 86 1;
#X connect 6 0 87 1;
#X connect 7 0 88 1;
#X connect 8 0 89 1;
#X connect 9 0 90 1;
#X connect 10 0 91 1;
#X connect 11 0 92 1;
#X connect 12 0 93 1;
#X connect 13 0 94 1;
#X connect 14 0 95 1;
#X connect 15 0 96 1;
#X connect 16 0 97 1;
#X connect 17 0 98 1;
#X connect 18 0 99 1;
#X connect 19 0 100 1;
#X connect 20 0 54 1;
#X connect 21 0 55 1;
#X connect 22 0 56 1;
#X connect 23 0 57 1;
#X connect 24 0 58 1;
#X connect 25 0 59 1;
#X connect 26 0 60 1;
#X connect 27 0 61 1;
#X connect 28 0 62 1;
#X connect 29 0 63 1;
#X connect 30 0 64 1;
#X connect 31 0 65 1;
#X connect 32 0 66 1;
#X connect 33 0 67 1;
#X connect 34 0 68 1;
#X connect 35 0 69 1;
#X connect 36 0 103 0;
#X connect 36 1 37 0;
#X connect 36 2 38 0;
#X connect 36 3 39 0;
#X connect 36 4 40 0;
#X connect 36 5 41 0;
#X connect 36 6 42 0;
#X connect 36 7 43 0;
#X connect 36 8 44 0;
#X connect 36 9 45 0;
#X connect 36 10 46 0;
#X connect 36 11 47 0;
#X connect 36 12 48 0;
#X connect 36 13 49 0;
#X connect 36 14 50 0;
#X connect 36 15 51 0;
#X connect 37 0 5 0;
#X connect 37 0 55 0;
#X connect 38 0 6 0;
#X connect 38 0 56 0;
#X connect 39 0 7 0;
#X connect 39 0 57 0;
#X connect 40 0 8 0;
#X connect 40 0 58 0;
#X connect 41 0 9 0;
#X connect 41 0 59 0;
#X connect 42 0 10 0;
#X connect 42 0 60 0;
#X connect 43 0 11 0;
#X connect 43 0 61 0;
#X connect 44 0 12 0;
#X connect 44 0 62 0;
#X connect 45 0 13 0;
#X connect 45 0 63 0;
#X connect 46 0 14 0;
#X connect 46 0 64 0;
#X connect 47 0 15 0;
#X connect 47 0 65 0;
#X connect 48 0 16 0;
#X connect 48 0 66 0;
#X connect 49 0 17 0;
#X connect 49 0 67 0;
#X connect 50 0 18 0;
#X connect 50 0 68 0;
#X connect 51 0 19 0;
#X connect 51 0 69 0;
#X connect 52 0 101 0;
#X connect 52 0 0 0;
#X connect 53 0 52 0;
#X connect 54 0 70 0;
#X connect 55 0 71 0;
#X connect 56 0 72 0;
#X connect 57 0 73 0;
#X connect 58 0 74 0;
#X connect 59 0 75 0;
#X connect 60 0 76 0;
#X connect 61 0 77 0;
#X connect 62 0 78 0;
#X connect 63 0 79 0;
#X connect 64 0 80 0;
#X connect 65 0 81 0;
#X connect 66 0 82 0;
#X connect 67 0 83 0;
#X connect 68 0 84 0;
#X connect 69 0 85 0;
#X connect 70 0 53 0;
#X connect 71 0 86 0;
#X connect 72 0 87 0;
#X connect 73 0 88 0;
#X connect 74 0 89 0;
#X connect 75 0 90 0;
#X connect 76 0 91 0;
#X connect 77 0 92 0;
#X connect 78 0 93 0;
#X connect 79 0 94 0;
#X connect 80 0 95 0;
#X connect 81 0 96 0;
#X connect 82 0 97 0;
#X connect 83 0 98 0;
#X connect 84 0 99 0;
#X connect 85 0 100 0;
#X connect 86 0 52 0;
#X connect 87 0 52 0;
#X connect 88 0 52 0;
#X connect 89 0 52 0;
#X connect 90 0 52 0;
#X connect 91 0 52 0;
#X connect 92 0 52 0;
#X connect 93 0 52 0;
#X connect 94 0 52 0;
#X connect 95 0 52 0;
#X connect 96 0 52 0;
#X connect 97 0 52 0;
#X connect 98 0 52 0;
#X connect 99 0 52 0;
#X connect 100 0 52 0;
#X connect 101 0 104 0;
#X connect 103 0 54 0;
#X connect 103 0 4 0;
#X connect 104 0 1 0;
#X coords 0 -1 1 1 300 190 1 230 100;
