#N canvas 178 214 450 300 10;
#X obj 101 8 inlet;
#X obj 21 266 outlet;
#X obj 98 79 >= 0;
#X obj 102 118 == 1;
#X msg 50 178 bang;
#X floatatom 197 186 5 0 0 0 - - -;
#X floatatom 256 188 5 0 0 0 - - -;
#X floatatom 199 260 5 0 0 0 - - -;
#X obj 46 155 select 1;
#X obj 106 48 delta;
#X obj 217 231 >;
#X obj 258 232 <;
#X obj 329 209 select 1;
#X msg 339 243 bang;
#X obj 305 270 outlet;
#X obj 226 115 average;
#X obj 229 15 0;
#X obj 271 20 1;
#X floatatom 243 64 5 0 0 0 - - -;
#X obj 309 178 * 1;
#X obj 59 219 delay 300;
#X obj 137 189 * 1;
#X connect 0 0 9 0;
#X connect 2 0 3 0;
#X connect 2 0 15 0;
#X connect 3 0 5 0;
#X connect 4 0 1 0;
#X connect 4 0 16 0;
#X connect 4 0 20 0;
#X connect 5 0 10 0;
#X connect 5 0 11 0;
#X connect 6 0 10 1;
#X connect 6 0 11 1;
#X connect 8 0 4 0;
#X connect 9 0 2 0;
#X connect 10 0 7 0;
#X connect 10 0 21 0;
#X connect 11 0 19 0;
#X connect 12 0 13 0;
#X connect 13 0 14 0;
#X connect 13 0 16 0;
#X connect 13 0 20 0;
#X connect 15 0 6 0;
#X connect 16 0 18 0;
#X connect 17 0 18 0;
#X connect 18 0 19 1;
#X connect 18 0 21 1;
#X connect 19 0 12 0;
#X connect 20 0 17 0;
#X connect 21 0 8 0;
