#N canvas 728 172 450 300 10;
#X obj 14 35 inlet;
#X obj 69 36 inlet;
#X obj 175 85 mtof;
#X obj 176 165 +;
#X obj 233 165 *;
#X obj 216 115 * 4;
#X obj 200 29 inlet;
#X floatatom 268 78 5 0 0 0 - - -;
#X obj 286 31 4;
#X obj 282 8 loadbang;
#X obj 46 246 outlet;
#X floatatom 286 151 5 0 0 0 - - -;
#X msg 327 107 bang;
#X connect 0 0 4 0;
#X connect 1 0 2 0;
#X connect 2 0 3 1;
#X connect 2 0 5 0;
#X connect 3 0 10 0;
#X connect 4 0 3 0;
#X connect 5 0 4 1;
#X connect 5 0 11 0;
#X connect 6 0 7 0;
#X connect 7 0 5 1;
#X connect 7 0 12 0;
#X connect 8 0 7 0;
#X connect 9 0 8 0;
#X connect 12 0 5 0;
