#N canvas 253 281 1187 619 10;
#X floatatom 32 -23 5 0 0 0 - - -;
#X floatatom 184 15 5 0 0 0 - - -;
#X obj 163 102 moses 1;
#X obj 175 152 bng 15 250 50 0 empty empty empty 17 7 0 10 -262144
-1 -1;
#X obj 305 37 vsl 15 128 0 1 0 0 empty empty empty 0 -9 0 10 -262144
-1 -1 5200 1;
#X obj 81 159 +;
#X obj 9 -55 inlet;
#X obj 4 245 outlet;
#X obj 425 -33 inlet;
#X obj 22 33 cnv 15 100 60 empty empty empty 20 12 0 14 -233017 -66577
0;
#X obj 126 -35 tabread \$1;
#X connect 0 0 10 0;
#X connect 1 0 5 0;
#X connect 2 1 3 0;
#X connect 3 0 7 0;
#X connect 4 0 5 1;
#X connect 5 0 2 0;
#X connect 6 0 0 0;
#X connect 8 0 4 0;
#X connect 10 0 1 0;
#X coords 0 -1 1 1 30 180 1 300 0;
