#N canvas 0 22 450 300 10;
#X obj 52 30 inlet~;
#X obj 160 39 inlet;
#X obj 85 103 *~;
#X obj 140 113 line~;
#X obj 166 88 pack f 50;
#X obj 126 207 outlet~;
#X connect 0 0 2 0;
#X connect 1 0 4 0;
#X connect 2 0 5 0;
#X connect 3 0 2 1;
#X connect 4 0 3 0;
