#N canvas 571 49 324 278 10;
#X obj 112 43 delay 5;
#X obj 83 155 vline~;
#X obj 85 183 tabread4~ \$1;
#X obj 146 210 *~;
#X obj 172 162 vline~;
#X obj 98 242 outlet~;
#X obj 44 13 inlet;
#X obj 63 56 bng 15 250 50 0 empty empty empty 17 7 0 10 -262144 -1
-1;
#X msg 12 91 0 5;
#X msg 113 85 1 \, 4.41e+08 1e+07;
#X msg 176 116 1;
#X connect 0 0 9 0;
#X connect 1 0 2 0;
#X connect 2 0 3 0;
#X connect 3 0 5 0;
#X connect 4 0 3 1;
#X connect 6 0 7 0;
#X connect 7 0 8 0;
#X connect 7 0 0 0;
#X connect 8 0 4 0;
#X connect 9 0 1 0;
#X connect 9 0 10 0;
#X connect 10 0 4 0;
