#N canvas 249 225 499 437 10;
#X obj 105 -99 *~;
#X obj 3 20 vsl 15 128 1e-05 1 1 0 empty empty empty 0 -9 0 10 -262144
-1 -1 0 1;
#X obj 165 -101 *~;
#X obj 78 -168 inlet;
#X obj 139 -167 inlet~;
#X obj 200 -163 inlet~;
#X obj 106 -59 outlet~;
#X obj 168 -59 outlet~;
#X obj 218 -117 cnv 15 100 60 empty empty empty 20 12 0 14 -233017
-66577 0;
#X connect 0 0 6 0;
#X connect 1 0 0 1;
#X connect 1 0 2 1;
#X connect 2 0 7 0;
#X connect 3 0 1 0;
#X connect 4 0 0 0;
#X connect 5 0 2 0;
#X coords 0 -1 1 1 30 160 2 0 0;
