#N canvas 513 215 852 534 10;
#X declare -lib oscx;
#X obj -667 7 import oscx;
#X obj -748 7 dumpOSC 9000;
#X obj -713 233 OSCroute /1 /2 /3 /4 /5;
#X floatatom -664 126 10 0 0 0 - - -;
#X obj -747 32 OSCroute /accxyz /voltage;
#X obj -667 85 OSCroute /1 /2 /3 /4 /5;
#X obj -648 61 print unknown:::;
#X floatatom -664 146 10 0 0 0 - - -;
#X floatatom -664 166 10 0 0 0 - - -;
#X floatatom -664 185 10 0 0 0 - - -;
#X floatatom -664 205 10 0 0 0 - - -;
#X obj -738 349 s xbee1;
#X obj -687 349 s xbee2;
#X obj -638 349 s xbee3;
#X obj -589 349 s xbee4;
#X obj -539 349 s xbee5;
#X obj -580 123 cnv 15 100 60 empty empty empty 20 12 0 14 -233017
-66577 0;
#X obj -633 283 - 500;
#X obj -633 309 / 100;
#X obj -684 126 tgl 15 0 empty empty empty 17 7 0 10 -262144 -1 -1
0 1;
#X obj -546 112 alive;
#X obj -536 122 alive;
#X obj -526 132 alive;
#X obj -516 142 alive;
#X obj -506 152 alive;
#X obj -684 145 tgl 15 0 empty empty empty 17 7 0 10 -262144 -1 -1
0 1;
#X obj -684 164 tgl 15 0 empty empty empty 17 7 0 10 -262144 -1 -1
0 1;
#X obj -683 183 tgl 15 0 empty empty empty 17 7 0 10 -262144 -1 -1
1 1;
#X obj -683 204 tgl 15 0 empty empty empty 17 7 0 10 -262144 -1 -1
1 1;
#X obj -674 283 - 500;
#X obj -674 309 / 100;
#X obj -714 283 - 500;
#X obj -714 309 / 100;
#X obj -592 283 - 500;
#X obj -592 309 / 100;
#X obj -550 283 - 500;
#X obj -550 309 / 100;
#X connect 1 0 4 0;
#X connect 2 0 20 0;
#X connect 2 0 31 0;
#X connect 2 1 21 0;
#X connect 2 1 29 0;
#X connect 2 2 22 0;
#X connect 2 2 17 0;
#X connect 2 3 23 0;
#X connect 2 3 33 0;
#X connect 2 4 24 0;
#X connect 2 4 35 0;
#X connect 4 0 2 0;
#X connect 4 1 5 0;
#X connect 4 2 6 0;
#X connect 5 0 3 0;
#X connect 5 1 7 0;
#X connect 5 2 8 0;
#X connect 5 3 9 0;
#X connect 5 4 10 0;
#X connect 17 0 18 0;
#X connect 18 0 13 0;
#X connect 20 0 19 0;
#X connect 21 0 25 0;
#X connect 22 0 26 0;
#X connect 23 0 27 0;
#X connect 24 0 28 0;
#X connect 29 0 30 0;
#X connect 30 0 12 0;
#X connect 31 0 32 0;
#X connect 32 0 11 0;
#X connect 33 0 34 0;
#X connect 34 0 14 0;
#X connect 35 0 36 0;
#X connect 36 0 15 0;
#X coords 0 -1 1 1 90 121 1 -690 105;
