#N canvas 204 213 801 477 10;
#X obj 96 25 adc~;
#N canvas 0 22 450 300 (subpatch) 0;
#X array memo 100000 float 2;
#X coords 0 1 100000 -1 200 140 1;
#X restore 483 -14 graph;
#X obj 173 190 tabwrite~ memo;
#X msg 174 83 bang;
#X obj 198 133 bng 15 250 50 0 empty empty empty 17 7 0 10 -262144
-1 -1;
#X obj 193 330 tabread4~ memo;
#X obj 91 283 random 50000;
#X obj 146 328 +~;
#X obj 108 317 sig~;
#X obj 282 222 vline~;
#X obj -64 20 inlet;
#X obj -11 21 inlet;
#X obj 181 408 outlet~;
#X obj 35 22 inlet;
#X obj -32 74 select 0;
#X obj 308 117 bng 15 250 50 0 empty empty empty 17 7 0 10 -262144
-1 -1;
#X obj 295 52 / 16;
#X floatatom 380 68 5 0 0 0 - - -;
#X msg 422 113 bang;
#X obj 428 185 print;
#X obj 299 340 vline~;
#X obj 357 250 delay;
#X obj 412 227 - 10;
#X msg 302 295 1 10;
#X obj 271 377 *~;
#X floatatom 426 269 5 0 0 0 - - -;
#X msg 365 283 0 10;
#X obj 25 213 / 2;
#X floatatom 18 348 10 0 0 0 - - -;
#X obj 79 225 * 44.1;
#X floatatom 14 271 5 0 0 0 - - -;
#X msg 306 186 \$1 \$1 \, 0 0 \$1;
#X obj 214 243 *~ 44.1;
#X connect 0 0 2 0;
#X connect 3 0 2 0;
#X connect 4 0 6 0;
#X connect 4 0 17 0;
#X connect 5 0 24 0;
#X connect 6 0 8 0;
#X connect 6 0 28 0;
#X connect 7 0 5 0;
#X connect 8 0 7 0;
#X connect 9 0 32 0;
#X connect 10 0 14 0;
#X connect 11 0 15 0;
#X connect 13 0 16 0;
#X connect 13 0 27 0;
#X connect 14 0 3 0;
#X connect 15 0 21 0;
#X connect 15 0 23 0;
#X connect 15 0 4 0;
#X connect 16 0 17 0;
#X connect 17 0 18 0;
#X connect 17 0 22 0;
#X connect 17 0 31 0;
#X connect 20 0 24 1;
#X connect 21 0 26 0;
#X connect 22 0 21 1;
#X connect 22 0 25 0;
#X connect 23 0 20 0;
#X connect 24 0 12 0;
#X connect 26 0 20 0;
#X connect 27 0 29 0;
#X connect 29 0 6 1;
#X connect 29 0 30 0;
#X connect 31 0 9 0;
#X connect 32 0 7 1;
